<?xml version="1.0" encoding="UTF-8" standalone="no"?>
<!-- Created with Inkscape (http://www.inkscape.org/) -->

<svg
   width="90.875465mm"
   height="90.875458mm"
   viewBox="0 0 90.875466 90.875458"
   version="1.1"
   id="svg1"
   xml:space="preserve"
   xmlns="http://www.w3.org/2000/svg"
   xmlns:svg="http://www.w3.org/2000/svg"><defs
     id="defs1" /><g
     id="g5"
     transform="translate(-23.00705,-18.472003)"><circle
       style="fill:#16365c;stroke:none;stroke-width:0.329455;stroke-linecap:round;stroke-linejoin:round;paint-order:markers fill stroke"
       id="path4"
       cx="68.444778"
       cy="63.909729"
       r="45.437729" /><path
       style="fill:#ffffff;fill-opacity:1"
       d="m 75.035593,99.656998 c 2.17503,-1.47505 4.0082,-2.768653 4.07372,-2.874673 0.0655,-0.10601 1.45177,-8.037196 3.08054,-17.624856 1.62877,-9.58765 3.08124,-17.58843 3.22771,-17.7795 0.14647,-0.19107 1.94214,-1.16374 3.99039,-2.16148 10.909997,-5.31451 14.952107,-8.81446 15.420437,-13.35214 0.30528,-2.95792 -1.35335,-5.21767 -4.472,-6.09272 -3.846247,-1.0792 -8.613867,0.67992 -17.885937,6.59941 -2.17273,1.38712 -4.07213,2.52204 -4.22087,2.52204 -0.14875,0 -7.69174,-2.91703 -16.76221,-6.48229 -9.07047,-3.56526 -16.58373,-6.48229 -16.69613,-6.48229 -0.57979,0 -8.93486,4.09895 -9.06932,4.44936 -0.0866,0.22563 0.0555,0.61299 0.31594,0.86109 0.26033,0.24803 5.71208,3.99404 12.115,8.32446 13.53871,9.15651 13.36146,9.03011 13.36146,9.52789 0,0.49933 -12.12727,8.5872 -12.87599,8.5872 -0.31604,0 -3.70725,-0.83814 -7.53601,-1.86254 -3.82876,-1.0244 -7.14245,-1.82807 -7.36375,-1.78594 -0.22131,0.0421 -1.79493,0.85051 -3.49694,1.79639 -2.84796,1.58275 -3.63578,2.29501 -3.24244,2.93146 0.0659,0.10659 3.30459,1.9856 7.19714,4.17559 3.89255,2.18999 7.30043,4.14511 7.57307,4.34471 0.47696,0.34918 0.48521,0.68721 0.21819,8.93821 -0.28121,8.689696 -0.24225,9.243366 0.65036,9.243366 0.20539,0 1.83441,-0.82721 3.62006,-1.83823 l 3.24664,-1.838236 2.19902,-7.52786 2.19903,-7.52787 6.78237,-3.22095 c 7.05099,-3.34851 7.49915,-3.4715 7.64219,-2.09725 0.0363,0.34913 0.42346,7.29027 0.86026,15.42476 0.76293,14.207921 0.90014,15.504811 1.64045,15.504811 0.13917,0 2.0326,-1.20687 4.20762,-2.681922 z"
       id="path1" /></g></svg>
